Coordinates
version=1
nRows=54
nColumns=12
inDegrees=yes

Units are S.I. units (second, meters, Newtons, ...)
Angles are in degrees

endheader
time	SC_y	SC_z	SC_x	AC_y	AC_z	AC_x	GH_y	GH_z	GH_yy	EL_x	PS_y
       0.0              -36.35          35.67          50.43           47.9         -13.29         -5.144          150.8          87.35         -95.87          121.7          43.78
   0.03728              -36.35          35.67          50.43           47.9         -13.28         -5.145          150.8          87.35         -95.86          121.7          43.78
   0.07455              -36.34          35.67          50.43           47.9         -13.28         -5.147          150.7          87.35         -95.85          121.7          43.78
    0.1118              -36.34          35.67          50.43           47.9         -13.28         -5.148          150.7          87.34         -95.84          121.7          43.79
    0.1491              -36.34          35.67          50.43          47.91         -13.28         -5.149          150.7          87.34         -95.82          121.7          43.79
    0.1864              -36.34          35.67          50.44          47.91         -13.27         -5.151          150.7          87.34         -95.81          121.7          43.79
    0.2237              -36.33          35.67          50.44          47.91         -13.27         -5.153          150.7          87.34         -95.79          121.7           43.8
    0.2609              -36.33          35.67          50.44          47.91         -13.27         -5.154          150.7          87.33         -95.77          121.7           43.8
    0.2982              -36.33          35.67          50.44          47.91         -13.26         -5.156          150.7          87.33         -95.75          121.7          43.81
    0.3355              -36.32          35.67          50.44          47.91         -13.26         -5.158          150.7          87.33         -95.73          121.7          43.81
    0.3728              -36.32          35.67          50.44          47.91         -13.25          -5.16          150.7          87.32         -95.71          121.7          43.82
      0.41              -36.31          35.67          50.44          47.91         -13.25         -5.163          150.6          87.32         -95.69          121.7          43.82
    0.4473              -36.31          35.67          50.44          47.91         -13.24         -5.165          150.6          87.32         -95.67          121.7          43.83
    0.4846               -36.3          35.67          50.45          47.91         -13.24         -5.168          150.6          87.31         -95.64          121.7          43.84
    0.5219               -36.3          35.67          50.45          47.92         -13.23         -5.171          150.6          87.31         -95.61          121.7          43.84
    0.5591              -36.29          35.67          50.45          47.92         -13.23         -5.174          150.6           87.3         -95.58          121.7          43.85
    0.5964              -36.28          35.67          50.45          47.92         -13.22         -5.178          150.6          87.29         -95.54          121.7          43.86
    0.6337              -36.28          35.68          50.45          47.92         -13.21         -5.182          150.5          87.29         -95.51          121.7          43.87
     0.671              -36.27          35.68          50.46          47.92          -13.2         -5.186          150.5          87.28         -95.47          121.7          43.88
    0.7082              -36.26          35.68          50.46          47.92         -13.19          -5.19          150.5          87.27         -95.42          121.7          43.89
    0.7455              -36.25          35.68          50.46          47.93         -13.18         -5.195          150.4          87.27         -95.37          121.8           43.9
    0.7828              -36.24          35.68          50.46          47.93         -13.17         -5.201          150.4          87.26         -95.32          121.8          43.91
    0.8201              -36.23          35.68          50.47          47.93         -13.16         -5.207          150.4          87.25         -95.26          121.8          43.93
    0.8573              -36.22          35.68          50.47          47.94         -13.15         -5.214          150.3          87.23         -95.19          121.8          43.94
    0.8946               -36.2          35.68          50.48          47.94         -13.13         -5.221          150.3          87.22         -95.12          121.8          43.96
    0.9319              -36.19          35.69          50.48          47.94         -13.12          -5.23          150.2          87.21         -95.04          121.8          43.98
    0.9692              -36.17          35.69          50.49          47.95          -13.1         -5.239          150.2          87.19         -94.95          121.8           44.0
     1.006              -36.15          35.69          50.49          47.95         -13.08         -5.249          150.1          87.17         -94.84          121.8          44.03
     1.044              -36.12          35.69           50.5          47.96         -13.05         -5.261          150.0          87.16         -94.73          121.9          44.05
     1.081               -36.1          35.69          50.51          47.97         -13.03         -5.275          150.0          87.13          -94.6          121.9          44.09
     1.118              -36.07           35.7          50.52          47.97          -13.0          -5.29          149.9          87.11         -94.45          121.9          44.12
     1.156              -36.03           35.7          50.53          47.98         -12.96         -5.308          149.8          87.08         -94.27          121.9          44.16
     1.193               -36.0          35.71          50.54          47.99         -12.92         -5.328          149.6          87.04         -94.07          122.0          44.21
      1.23              -35.95          35.71          50.55           48.0         -12.87         -5.352          149.5           87.0         -93.84          122.0          44.27
     1.267               -35.9          35.72          50.57          48.02         -12.82          -5.38          149.3          86.96         -93.57          122.1          44.33
     1.305              -35.83          35.72          50.59          48.03         -12.75         -5.413          149.1           86.9         -93.25          122.1          44.41
     1.342              -35.76          35.73          50.61          48.05         -12.67         -5.452          148.9          86.84         -92.87          122.2           44.5
     1.379              -35.67          35.74          50.64          48.07         -12.58         -5.498          148.6          86.76         -92.41          122.3          44.61
     1.416              -35.56          35.75          50.67           48.1         -12.47         -5.555          148.2          86.66         -91.86          122.4          44.75
     1.454              -35.43          35.77          50.71          48.13         -12.33         -5.624          147.8          86.55         -91.19          122.5          44.91
     1.491              -35.26          35.78          50.76          48.17         -12.16         -5.709          147.3          86.41         -90.36          122.7          45.11
     1.528              -35.06          35.81          50.83          48.22         -11.95         -5.815          146.6          86.23         -89.32          122.8          45.36
     1.566               -34.8          35.83           50.9          48.29         -11.68         -5.949          145.8          86.01         -88.01          123.1          45.68
     1.603              -34.48          35.87           51.0          48.37         -11.34         -6.119          144.8          85.72         -86.35          123.4          46.08
      1.64              -34.06          35.92          51.13          48.47         -10.91         -6.337          143.5          85.36         -84.23          123.7          46.59
     1.677              -33.52          35.97           51.3          48.61         -10.35         -6.616          141.7          84.89          -81.5          124.2          47.25
     1.715              -32.84          36.05          51.51          48.78         -9.637         -6.973          139.6           84.3         -78.01          124.9          48.09
     1.752              -31.97          36.14          51.77          48.99         -8.742         -7.421          136.8          83.55         -73.63          125.6          49.15
     1.789              -30.92          36.25          52.09          49.25         -7.651         -7.968          133.4          82.63         -68.29          126.6          50.44
     1.826              -29.71          36.39          52.46          49.55         -6.387         -8.601          129.6          81.57          -62.1          127.7          51.93
     1.864              -28.39          36.53          52.87          49.88         -5.018         -9.288          125.4          80.43          -55.4          128.9          53.55
     1.901              -27.07          36.67          53.27          50.21         -3.648         -9.974          121.1          79.28          -48.7          130.1          55.17
     1.938              -25.85           36.8          53.64          50.51         -2.384         -10.61          117.3          78.22         -42.51          131.2          56.66
     1.976               -24.8          36.92          53.96          50.77         -1.293         -11.15          113.9          77.31         -37.17          132.2          57.95
